<svg width="360" height="240" xmlns="http://www.w3.org/2000/svg">
 <g>
  <title>Layer 1</title>
  <g>
   <rect fill="#F5F5F7" width="52" height="52"/>
   <polygon fill="#E2E2E2" points="26,6.1875 13.375,6.1875 2.625,20.0625 26,47.8125  "/>
   <polygon fill="#CFCECE" points="26,6.1875 38.625,6.1875 49.375,20.0625 26,47.8125  "/>
   <polygon fill="#D8D8D8" points="31.3339844,6.1875 26,6.1875 20.6665039,6.1875 16.125,20.0625 26,47.8125 35.875,20.0625  "/>
   <line fill="none" stroke="#F4F5F7" stroke-width="0.5" stroke-miterlimit="10" x1="2.625" y1="20.0625" x2="49.375" y2="20.0625"/>
   <rect x="0.0835" y="11" fill="none" width="51.83252" height="21"/>
   <text transform="matrix(1,0,0,1,17.0,31.9863281) " fill="#2BABE2" font-family="Arial" font-weight="bold" font-size="28">D</text>
  </g>
  <g>
   <rect x="60" y="0" fill="#4D656F" width="52" height="52"/>
   <polygon fill="#465B65" points="111.916015625,28 111.916015625,52 87.916015625,52 "/>
   <rect x="60.08398" y="15" fill="none" width="51.83203" height="21"/>
   <text x="60" y="0" transform="matrix(1,0,0,1,9.0742188,35.9863281) " fill="#FFFFFF" font-family="Arial" font-weight="bold" font-size="28">PE</text>
  </g>
  <g>
   <rect x="120" y="0" fill="#A6D1E4" width="52" height="52"/>
   <polygon fill="#92B8C9" points="171.5615234375,28 171.5615234375,52 147.5615234375,52 "/>
   <rect x="120.08398" y="15" fill="none" width="51.83203" height="21"/>
   <text x="120" y="0" transform="matrix(1,0,0,1,17.4882812,35.9863281) " fill="#FFFFFF" font-family="Arial" font-weight="bold" font-size="28">P</text>
  </g>
  <g>
   <rect x="180" y="0" fill="#CDC074" width="52" height="52"/>
   <polygon fill="#B2A969" points="231.916015625,28 231.916015625,52 207.916015625,52 "/>
   <rect x="180.0835" y="15" fill="none" width="51.83252" height="22"/>
   <text x="180" y="0" transform="matrix(1,0,0,1,15.8852539,35.9863281) " fill="#FFFFFF" font-family="Arial" font-weight="bold" font-size="28">G</text>
  </g>
  <g>
   <rect x="240" y="0" fill="#BCBEC4" width="52" height="52"/>
   <polygon fill="#A3A6AD" points="291.916015625,28 291.916015625,52 267.916015625,52 "/>
   <rect x="240.0835" y="15" fill="none" width="51.83252" height="22"/>
   <text x="240" y="0" transform="matrix(1,0,0,1,18.2441406,35.9863281) " fill="#FFFFFF" font-family="Arial" font-weight="bold" font-size="28">S</text>
  </g>
  <g>
   <rect x="300" y="0" fill="#D9B289" width="52" height="52"/>
   <polygon fill="#CB9B6D" points="351.916015625,28 351.916015625,52 327.916015625,52 "/>
   <rect x="300.0835" y="15" fill="none" width="51.83252" height="22"/>
   <text x="300" y="0" transform="matrix(1,0,0,1,16.6269531,35.9863281) " fill="#FFFFFF" font-family="Arial" font-weight="bold" font-size="28">B</text>
  </g>
  <g>
   <rect x="0" y="60" fill="#28B7AE" width="52" height="52"/>
   <polygon fill="#27A29B" points="52,88 52,112 28,112 "/>
   <rect x="0" y="78.3335" fill="none" width="51.83301" height="15.33252"/>
   <text x="0" y="60" transform="matrix(1,0,0,1,3.8769531,32.4501953) " fill="#FFFFFF" font-family="Arial" font-weight="bold" font-size="19">4000</text>
  </g>
  <g>
   <rect x="60" y="60" fill="#0982C5" width="52" height="52"/>
   <polygon fill="#0774B0" points="112,88 112,112 88,112 "/>
   <rect x="60" y="78.3335" fill="none" width="51.83301" height="15.33252"/>
   <text x="60" y="60" transform="matrix(1,0,0,1,3.8769531,32.4501953) " fill="#FFFFFF" font-family="Arial" font-weight="bold" font-size="19">2500</text>
  </g>
  <g>
   <rect x="120" y="60" fill="#A83C80" width="51.99902" height="52.00049"/>
   <polygon fill="#923973" points="171.9990234375,88.00048828125 171.9990234375,112.00048828125 147.9990234375,112.00048828125 "/>
   <rect x="120" y="78.3335" fill="none" width="51.83301" height="15.33301"/>
   <text x="119.99902" y="60.00049" transform="matrix(1,0,0,1,3.8779297,32.4492188) " fill="#FFFFFF" font-family="Arial" font-weight="bold" font-size="19">2000</text>
  </g>
  <g>
   <rect x="180" y="60" fill="#534894" width="52" height="52"/>
   <polygon fill="#2D2F72" points="232,88 232,112 207.99951171875,112 "/>
   <rect x="180" y="78.3335" fill="none" width="51.83398" height="15.33252"/>
   <text x="180" y="60" transform="matrix(1,0,0,1,3.8769531,32.4501953) " fill="#FFFFFF" font-family="Arial" font-weight="bold" font-size="19">1500</text>
  </g>
  <g>
   <rect x="240" y="60" fill="#8D64AB" width="52" height="52"/>
   <polygon fill="#855AA5" points="292,88 292,112 268,112 "/>
   <rect x="240" y="78.33398" fill="none" width="51.83301" height="15.33203"/>
   <text x="240" y="60" transform="matrix(1,0,0,1,3.8769531,32.4501953) " fill="#FFFFFF" font-family="Arial" font-weight="bold" font-size="19">1000</text>
  </g>
  <g>
   <rect x="300" y="60" fill="#7FB341" width="52" height="52"/>
   <polygon fill="#709E40" points="352,88 352,112 328,112 "/>
   <rect x="300" y="78.33398" fill="none" width="51.83301" height="15.33203"/>
   <text x="300" y="60" transform="matrix(1,0,0,1,9.3867188,32.4501953) " fill="#FFFFFF" font-family="Arial" font-weight="bold" font-size="19">500</text>
  </g>
  <g>
   <rect fill="#F7901E" width="52" height="52" y="120" x="0"/>
   <polygon fill="#DC8127" points="51.916015625,148 51.916015625,172 27.916015625,172 "/>
   <rect x="0.0835" y="135" fill="none" width="51.83252" height="21"/>
   <text transform="matrix(1,0,0,1,17.9008789,35.9863281) " fill="#FFFFFF" font-family="Arial" font-weight="bold" font-size="28" y="120" x="0">T</text>
  </g>
  <g>
   <rect fill="#697177" width="52" height="52" y="120" x="120"/>
   <polygon fill="#5D666B" points="171.916015625,148 171.916015625,172 147.916015625,172 "/>
   <rect x="120.0835" y="135" fill="none" width="51.83252" height="21"/>
   <text transform="matrix(1,0,0,1,16.578125,35.9863281) " fill="#FFFFFF" font-family="Arial" font-weight="bold" font-size="28" y="120" x="120">V</text>
  </g>
  <g>
   <rect fill="#0982C5" width="52" height="52" y="120" x="180"/>
   <polygon fill="#0774B0" points="231.916015625,148 231.916015625,172 207.916015625,172 "/>
   <rect x="180.08398" y="135" fill="none" width="51.83203" height="21"/>
   <text transform="matrix(1,0,0,1,8.9272461,35.9863281) " fill="#FFFFFF" font-family="Arial" font-weight="bold" font-size="28" y="120" x="180">C</text>
   <text transform="matrix(1,0,0,1,27.5605469,35.9863281) " fill="#FFFFFF" font-family="Arial" font-weight="bold" font-size="28" y="120" x="180">S</text>
  </g>
  <g>
   <rect x="240" y="120" fill="#B44B4A" width="52" height="51.99951"/>
   <polygon fill="#9D4545" points="291.916015625,147.99951171875 291.916015625,171.99951171875 267.916015625,171.99951171875 "/>
   <g>
    <circle fill="#FFFFFF" stroke="#B44B4B" stroke-miterlimit="10" cx="272.99268" cy="136.24707" r="4.18604"/>
    <path fill="#FFFFFF" d="m272.70074,141.24551l0.539,0.009c3.26401,0 5.66202,-0.532 5.66202,2.73199v2.59c0,2.19101 -1.19803,4.489 -2.97,5.767c0.01898,0.138 0.043,0.27901 0.043,0.42601v4.75499c0,0.94 -0.43301,1.21501 -1.11102,1.28c-0.51199,0.04901 -3.11798,0.037 -3.60599,0.011c-0.75601,-0.041 -1.24701,-0.291 -1.24701,-1.291v-4.75499c0,-0.147 0.02301,-0.28801 0.043,-0.42601c-1.772,-1.278 -2.97,-3.57599 -2.97,-5.767v-2.59c0,-3.26399 2.354,-2.741 5.617,-2.741l0,0z"/>
    <circle fill="#FFFFFF" stroke="#B44B4B" stroke-miterlimit="10" cx="258.99268" cy="136.24707" r="4.18604"/>
    <path fill="#FFFFFF" d="m258.70074,141.24551l0.539,0.009c3.26401,0 5.66202,-0.532 5.66202,2.73199v2.59c0,2.19101 -1.19803,4.489 -2.97,5.767c0.01898,0.138 0.043,0.27901 0.043,0.42601v4.75499c0,0.94 -0.43301,1.21501 -1.11102,1.28c-0.51199,0.04901 -3.11798,0.037 -3.60599,0.011c-0.75601,-0.041 -1.24701,-0.291 -1.24701,-1.291v-4.75499c0,-0.147 0.02301,-0.28801 0.043,-0.42601c-1.772,-1.278 -2.97,-3.57599 -2.97,-5.767v-2.59c0,-3.26399 2.354,-2.741 5.617,-2.741l0,0z"/>
    <circle fill="#FFFFFF" stroke="#B44B4B" stroke-miterlimit="10" cx="265.89063" cy="134.40332" r="5.3125"/>
    <path fill="#FFFFFF" stroke="#B44B4B" stroke-miterlimit="10" d="m266.51575,140.55151l-0.625,0.011c-3.77899,0 -6.55701,-0.616 -6.55701,3.164v3c0,2.539 1.38702,5.20099 3.44101,6.677c-0.02399,0.16399 -0.04999,0.325 -0.04999,0.49399v5.51001c0,1.149 0.56,1.442 1.42297,1.49199c0.569,0.03401 3.52402,0.03801 4.10001,-0.002c0.84,-0.058 1.383,-0.35899 1.383,-1.48999v-5.51001c0,-0.16899 -0.026,-0.33 -0.04999,-0.49399c2.05399,-1.47601 3.44101,-4.138 3.44101,-6.677v-3c0,-3.78 -2.72702,-3.175 -6.50601,-3.175l0,0z"/>
    <line fill="#B44B4A" x1="262.9209" y1="140.52881" x2="269.75879" y2="140.52881"/>
   </g>
  </g>
  <g transform="translate(60.000000,172.000000) scale(0.005138,-0.005138)" fill="#0768ae" stroke="none">
    <rect x="1200" y="2500" fill="#ffffff" width="8000" height="4500"/>
    <path d="M4825 10104 c-605 -37 -1107 -145 -1629 -350 -185 -73 -545 -250
-722 -357 -1327 -795 -2221 -2152 -2418 -3669 -56 -429 -56 -907 0 -1336 51
-392 160 -814 310 -1196 73 -186 250 -545 358 -725 627 -1047 1607 -1829 2767
-2211 1102 -363 2336 -324 3434 106 188 74 547 252 725 359 1082 652 1881
1674 2241 2867 317 1048 284 2186 -91 3208 -532 1449 -1699 2576 -3171 3060
-346 114 -733 192 -1134 230 -115 11 -567 20 -670 14z m-3166 -3589 c95 -52
144 -137 144 -250 0 -114 -48 -197 -145 -251 -47 -26 -63 -29 -138 -29 -75 0
-91 3 -138 29 -81 45 -126 108 -143 201 -26 139 51 270 188 321 62 23 168 13
232 -21z m2251 -235 l0 -220 -345 0 -345 0 0 -1195 0 -1195 -250 0 -250 0 0
1195 0 1195 -345 0 -345 0 0 220 0 220 940 0 940 0 0 -220z m876 -610 c504
-63 784 -430 784 -1029 l0 -131 -716 0 c-677 0 -715 -1 -710 -17 3 -10 10 -38
16 -63 33 -128 146 -267 267 -329 104 -52 193 -72 349 -78 107 -4 166 -2 245
11 86 15 246 60 309 90 13 5 26 -26 73 -174 32 -99 55 -185 52 -190 -8 -14
-237 -86 -330 -104 -528 -103 -993 18 -1242 324 -153 188 -231 489 -203 788
12 135 27 205 67 318 79 223 249 414 447 504 169 77 385 106 592 80z m2195 -7
c5 -5 -2 -98 -13 -208 l-21 -200 -141 0 c-124 0 -148 -3 -198 -23 -75 -30
-156 -105 -196 -180 -61 -114 -62 -126 -62 -784 l0 -598 -230 0 -230 0 0 878
c0 482 -3 921 -7 975 l-6 97 214 -2 214 -3 3 -143 3 -143 39 79 c67 134 183
223 334 258 64 14 282 12 297 -3z m1162 2 c389 -59 654 -288 761 -657 37 -130
50 -249 43 -421 -11 -299 -97 -520 -271 -693 -124 -123 -248 -194 -422 -239
-155 -40 -395 -45 -559 -10 -366 77 -618 329 -708 708 -19 80 -22 120 -21 302
1 193 3 218 26 306 92 340 286 560 584 658 176 59 376 75 567 46z m-6393
-1020 l0 -975 -230 0 -230 0 0 975 0 975 230 0 230 0 0 -975z"/>
<path d="M4465 5250 c-152 -48 -279 -198 -310 -363 l-7 -37 472 0 473 0 -6 53
c-19 160 -168 317 -338 356 -73 17 -217 12 -284 -9z"/>
<path d="M7788 5237 c-169 -59 -291 -199 -344 -397 -24 -90 -25 -291 -1 -380
70 -262 260 -420 507 -422 181 -2 327 75 426 223 221 333 99 840 -233 970 -45
18 -83 23 -173 26 -100 3 -124 1 -182 -20z"/>
   </g>
 </g>
</svg>