<?xml version="1.0" encoding="utf-8"?>
<!-- Generator: Adobe Illustrator 16.0.0, SVG Export Plug-In . SVG Version: 6.00 Build 0)  -->
<svg version="1.2" baseProfile="tiny" id="Layer_1" xmlns="http://www.w3.org/2000/svg" xmlns:xlink="http://www.w3.org/1999/xlink"
	 x="0px" y="0px" width="52px" height="52px" viewBox="0 0 52 52" xml:space="preserve">
<g>
	<rect x="-0.09375" y="0.0004883" fill="#B44B4A" width="52" height="51.9995117"/>
	<polygon fill="#9D4545" points="51.8222656,28 51.8222656,52 27.8222656,52 	"/>
	<g>
		<circle fill="#FFFFFF" stroke="#B44B4B" stroke-miterlimit="10" cx="32.8989258" cy="16.2475586" r="4.1860352"/>
		<path fill="#FFFFFF" d="M32.6074219,21.2456055l0.5390625,0.0097656c3.2636719,0,5.6611328-0.5322266,5.6611328,2.7314453
			v2.5898438c0,2.190918-1.1972656,4.4897461-2.9697266,5.7670898c0.0195312,0.1386719,0.0429688,0.2792969,0.0429688,0.4257812
			v4.7558594c0,0.9394531-0.4326172,1.2148438-1.1113281,1.2792969c-0.5117188,0.0488281-3.1171875,0.0371094-3.6054688,0.0117188
			c-0.7558594-0.0410156-1.2470703-0.2910156-1.2470703-1.2910156v-4.7558594c0-0.1464844,0.0234375-0.2871094,0.0429688-0.4257812
			c-1.7724609-1.2773438-2.9697266-3.5761719-2.9697266-5.7670898v-2.5898438
			C26.9902344,20.7231445,29.34375,21.2456055,32.6074219,21.2456055z"/>
		<circle fill="#FFFFFF" stroke="#B44B4B" stroke-miterlimit="10" cx="18.8989258" cy="16.2475586" r="4.1860352"/>
		<path fill="#FFFFFF" d="M18.6074219,21.2456055l0.5390625,0.0097656c3.2636719,0,5.6611328-0.5322266,5.6611328,2.7314453
			v2.5898438c0,2.190918-1.1972656,4.4897461-2.9697266,5.7670898c0.0195312,0.1386719,0.0429688,0.2792969,0.0429688,0.4257812
			v4.7558594c0,0.9394531-0.4326172,1.2148438-1.1113281,1.2792969c-0.5117188,0.0488281-3.1171875,0.0371094-3.6054688,0.0117188
			c-0.7558594-0.0410156-1.2470703-0.2910156-1.2470703-1.2910156v-4.7558594c0-0.1464844,0.0234375-0.2871094,0.0429688-0.4257812
			c-1.7724609-1.2773438-2.9697266-3.5761719-2.9697266-5.7670898v-2.5898438
			C12.9902344,20.7231445,15.34375,21.2456055,18.6074219,21.2456055z"/>
		<circle fill="#FFFFFF" stroke="#B44B4B" stroke-miterlimit="10" cx="25.796875" cy="14.4038086" r="5.3125"/>
		<path fill="#FFFFFF" stroke="#B44B4B" stroke-miterlimit="10" d="M26.421875,20.5517578l-0.625,0.0112305
			c-3.7792969,0-6.5566406-0.6162109-6.5566406,3.1635742v3.0004883c0,2.5385742,1.3867188,5.2006836,3.4404297,6.6772461
			c-0.0234375,0.1640625-0.0498047,0.3242188-0.0498047,0.4941406v5.5097656c0,1.1484375,0.5605469,1.4414062,1.4228516,1.4921875
			c0.5693359,0.0332031,3.5244141,0.0371094,4.1005859-0.0019531c0.8398438-0.0585938,1.3828125-0.359375,1.3828125-1.4902344
			v-5.5097656c0-0.1699219-0.0263672-0.3300781-0.0498047-0.4941406c2.0537109-1.4765625,3.4404297-4.1386719,3.4404297-6.6772461
			v-3.0004883C32.9277344,19.9467773,30.2011719,20.5517578,26.421875,20.5517578z"/>
		<line fill="#B44B4A" x1="22.8271484" y1="20.5292969" x2="29.6650391" y2="20.5292969"/>
	</g>
</g>
</svg>
