<svg width="52" height="52" xmlns="http://www.w3.org/2000/svg">
 <g>
  <title>Layer 1</title>

  <g transform="translate(0.000000,52.000000) scale(0.005138,-0.005138)" fill="#0768ae" stroke="none">
    <rect x="1200" y="2500" fill="#ffffff" width="8000" height="4500"/>
    <path d="M4825 10104 c-605 -37 -1107 -145 -1629 -350 -185 -73 -545 -250
-722 -357 -1327 -795 -2221 -2152 -2418 -3669 -56 -429 -56 -907 0 -1336 51
-392 160 -814 310 -1196 73 -186 250 -545 358 -725 627 -1047 1607 -1829 2767
-2211 1102 -363 2336 -324 3434 106 188 74 547 252 725 359 1082 652 1881
1674 2241 2867 317 1048 284 2186 -91 3208 -532 1449 -1699 2576 -3171 3060
-346 114 -733 192 -1134 230 -115 11 -567 20 -670 14z m-3166 -3589 c95 -52
144 -137 144 -250 0 -114 -48 -197 -145 -251 -47 -26 -63 -29 -138 -29 -75 0
-91 3 -138 29 -81 45 -126 108 -143 201 -26 139 51 270 188 321 62 23 168 13
232 -21z m2251 -235 l0 -220 -345 0 -345 0 0 -1195 0 -1195 -250 0 -250 0 0
1195 0 1195 -345 0 -345 0 0 220 0 220 940 0 940 0 0 -220z m876 -610 c504
-63 784 -430 784 -1029 l0 -131 -716 0 c-677 0 -715 -1 -710 -17 3 -10 10 -38
16 -63 33 -128 146 -267 267 -329 104 -52 193 -72 349 -78 107 -4 166 -2 245
11 86 15 246 60 309 90 13 5 26 -26 73 -174 32 -99 55 -185 52 -190 -8 -14
-237 -86 -330 -104 -528 -103 -993 18 -1242 324 -153 188 -231 489 -203 788
12 135 27 205 67 318 79 223 249 414 447 504 169 77 385 106 592 80z m2195 -7
c5 -5 -2 -98 -13 -208 l-21 -200 -141 0 c-124 0 -148 -3 -198 -23 -75 -30
-156 -105 -196 -180 -61 -114 -62 -126 -62 -784 l0 -598 -230 0 -230 0 0 878
c0 482 -3 921 -7 975 l-6 97 214 -2 214 -3 3 -143 3 -143 39 79 c67 134 183
223 334 258 64 14 282 12 297 -3z m1162 2 c389 -59 654 -288 761 -657 37 -130
50 -249 43 -421 -11 -299 -97 -520 -271 -693 -124 -123 -248 -194 -422 -239
-155 -40 -395 -45 -559 -10 -366 77 -618 329 -708 708 -19 80 -22 120 -21 302
1 193 3 218 26 306 92 340 286 560 584 658 176 59 376 75 567 46z m-6393
-1020 l0 -975 -230 0 -230 0 0 975 0 975 230 0 230 0 0 -975z"/>
<path d="M4465 5250 c-152 -48 -279 -198 -310 -363 l-7 -37 472 0 473 0 -6 53
c-19 160 -168 317 -338 356 -73 17 -217 12 -284 -9z"/>
<path d="M7788 5237 c-169 -59 -291 -199 -344 -397 -24 -90 -25 -291 -1 -380
70 -262 260 -420 507 -422 181 -2 327 75 426 223 221 333 99 840 -233 970 -45
18 -83 23 -173 26 -100 3 -124 1 -182 -20z"/>
   </g>
 </g>
</svg>