<?xml version="1.0" encoding="utf-8"?>
<!-- Generator: Adobe Illustrator 19.2.1, SVG Export Plug-In . SVG Version: 6.00 Build 0)  -->
<svg version="1.1" xmlns="http://www.w3.org/2000/svg" xmlns:xlink="http://www.w3.org/1999/xlink" x="0px" y="0px"
	 viewBox="0 0 50 50" style="enable-background:new 0 0 50 50;" xml:space="preserve">
<style type="text/css">
	.st0{fill:#009ACE;}
	.st1{fill:#FFFFFF;}
	.st2{fill:#2D3185;}
	.st3{fill:#BE955B;}
	.st4{fill:#EBEBEB;}
	.st5{fill:#970048;}
	.st6{fill:#101E8E;}
	.st7{fill:#E63C2F;}
	.st8{opacity:0.5;fill:#FFFFFF;}
	.st9{opacity:0.75;fill:#FFFFFF;}
	.st10{fill:#911A4B;}
</style>
<g id="Layer_1">
</g>
<g id="Layer_2">
	<g>
		<path class="st1" d="M35.2,17.3c-0.4-1.1-1.3-2-2.5-2.5c-0.8-0.3-1.6-0.4-2.4-0.4c-1.4-0.1-1.8-0.1-5.3-0.1s-3.9,0-5.3,0.1
			c-0.8,0-1.6,0.2-2.4,0.4c-1.1,0.4-2,1.3-2.5,2.5c-0.3,0.8-0.4,1.6-0.4,2.4c-0.1,1.4-0.1,1.8-0.1,5.3s0,3.9,0.1,5.3
			c0,0.8,0.2,1.6,0.4,2.4c0.4,1.1,1.3,2,2.5,2.5c0.8,0.3,1.6,0.4,2.4,0.4c1.4,0.1,1.8,0.1,5.3,0.1s3.9,0,5.3-0.1
			c0.8,0,1.6-0.2,2.4-0.4c1.1-0.4,2-1.3,2.5-2.5c0.3-0.8,0.4-1.6,0.4-2.4c0.1-1.4,0.1-1.8,0.1-5.3s0-3.9-0.1-5.3
			C35.6,18.9,35.4,18.1,35.2,17.3z M25,31.7c-3.7,0-6.7-3-6.7-6.7s3-6.7,6.7-6.7s6.7,3,6.7,6.7l0,0C31.7,28.7,28.7,31.7,25,31.7
			C25,31.7,25,31.7,25,31.7z M32,19.6c-0.9,0-1.6-0.7-1.6-1.6s0.7-1.6,1.6-1.6c0.9,0,1.6,0.7,1.6,1.6C33.5,18.9,32.8,19.6,32,19.6
			L32,19.6z"/>
		<circle class="st1" cx="25" cy="25" r="4.3"/>
		<path class="st1" d="M25,0C11.2,0,0,11.2,0,25s11.2,25,25,25s25-11.2,25-25l0,0C50,11.2,38.8,0,25,0C25,0,25,0,25,0z M37.9,30.4
			c0,1.1-0.2,2.1-0.6,3.2c-0.7,1.7-2.1,3.1-3.8,3.8c-1,0.4-2.1,0.6-3.2,0.6C29,38,28.5,38,25,38s-4,0-5.4-0.1
			c-1.1,0-2.1-0.2-3.2-0.6c-1.7-0.7-3.1-2.1-3.8-3.8c-0.4-1-0.6-2.1-0.6-3.2C12,29,12,28.5,12,25s0-4,0.1-5.4c0-1.1,0.2-2.1,0.6-3.2
			c0.7-1.7,2.1-3.1,3.8-3.8c1-0.4,2.1-0.6,3.2-0.6C21,12,21.5,12,25,12s4,0,5.4,0.1c1.1,0,2.1,0.2,3.2,0.6c1.7,0.7,3.1,2.1,3.8,3.8
			c0.4,1,0.6,2.1,0.6,3.2C38,21,38,21.5,38,25S38,29,37.9,30.4L37.9,30.4z"/>
	</g>
</g>
<g id="Layer_3">
</g>
</svg>
