<?xml version="1.0" encoding="utf-8"?>
<!-- Generator: Adobe Illustrator 21.0.2, SVG Export Plug-In . SVG Version: 6.00 Build 0)  -->
<svg version="1.1" xmlns="http://www.w3.org/2000/svg" xmlns:xlink="http://www.w3.org/1999/xlink" x="0px" y="0px"
	 viewBox="0 0 615.9 97.5" style="enable-background:new 0 0 615.9 97.5;" xml:space="preserve">
<style type="text/css">
	.st0{fill:#FFFFFF;}
	.st1{opacity:0.5;}
	.st2{opacity:0.75;}
</style>
<g id="Layer_2">
	<path class="st0" d="M302.2,35.1h5.9l0.1,2.5c0.5-0.7,2.8-3.2,6.8-3.2c6.5,0,10,4,10,11v16.3h-6.1V45.6c0-3.6-2.2-5.7-5.3-5.7
		c-3.1,0-5.3,2.1-5.3,5.7v16.1h-6.1V35.1z M250.5,61.7h-6.1V23.1h6.1V61.7z M263.6,61.7h-6.1V35.1h6.1V61.7z M260.5,22.5
		c-2.1,0-3.8,1.7-3.8,3.8c0,2.1,1.7,3.8,3.8,3.8c2.1,0,3.8-1.7,3.8-3.8C264.4,24.2,262.6,22.5,260.5,22.5 M231.3,35.1h6.1v26.5h-6.1
		l-0.1-2.8c-1.1,1.1-4.1,3.5-8.2,3.5c-7.2,0-12.6-5.8-12.6-14c0-8.7,5.8-14,12.6-14c4.8,0,7.4,2.6,8.2,3.5L231.3,35.1z M216.7,48.4
		c0,5.1,3.1,8.5,7.5,8.5c3.9,0,7.5-2.9,7.5-8.5c0-5.5-3.4-8.5-7.5-8.5C219.6,39.9,216.7,43.5,216.7,48.4 M289.4,48.4
		c0-5.5-3.5-8.5-7.5-8.5c-4.7,0-7.5,3.9-7.5,8.5c0,4.9,2.9,8.5,7.5,8.5C286.2,56.9,289.4,53.8,289.4,48.4 M295.2,59
		c0,11.4-6.7,15.2-14.5,15.2c-5.2,0-8.4-1.6-9.5-2.1l1.5-5.3c0.7,0.4,3.6,2.1,7.9,2.1c4.6,0,8.4-2.9,8.4-8.2v-1.8
		c-0.5,0.5-3.1,3.6-8.3,3.6c-7.1,0-12.5-5.7-12.5-14c0-7.9,5.1-14,12.6-14c5.1,0,7.7,2.9,8.2,3.5l0.1-2.8h6.1V59z"/>
	<path class="st0" d="M154.8,35.1l6.9,16l6.8-16h6.8l-13.7,28.4l-13.6-28.4H154.8z M189.2,55.6c1.5,0.9,4.4,2,6.9,2
		c3,0,4.4-1.3,4.4-3c0-1.8-1.1-2.8-4.4-4c-5.2-1.8-7.3-4.5-7.3-7.7c0-4.7,3.7-8.4,10-8.4c3,0,5.6,0.7,7.2,1.6l-1.4,4.7
		c-1.1-0.7-3.3-1.5-5.7-1.5c-2.4,0-3.9,1.2-3.9,2.9c0,1.7,1.3,2.6,4.7,3.9c4.9,1.7,7,4.2,7.1,8.1c0,4.9-3.6,8.4-10.8,8.4
		c-3.3,0-6.2-0.8-8.2-1.9L189.2,55.6z M117,61.7h-6.1V35.1h6.1V61.7z M114,22.5c-2.1,0-3.8,1.7-3.8,3.8c0,2.1,1.7,3.8,3.8,3.8
		c2.1,0,3.8-1.7,3.8-3.8C117.8,24.2,116.1,22.5,114,22.5 M183.7,61.7h-6.1V35.1h6.1V61.7z M180.6,22.5c-2.1,0-3.9,1.7-3.9,3.8
		c0,2.1,1.7,3.8,3.9,3.8c2.1,0,3.8-1.7,3.8-3.8C184.4,24.2,182.7,22.5,180.6,22.5 M124,35.1h5.9l0.1,2.5c0.5-0.7,2.6-3.2,6.9-3.2
		c5.9,0,9.9,4,9.9,11v16.3h-6.1v-16c0-3.4-2.2-5.7-5.3-5.7c-3.1,0-5.3,2.3-5.3,5.7v16H124V35.1z"/>
	<path class="st0" d="M335,33.4c2.2,0,4,1.8,4,4.1c0,2.3-1.9,4-4,4c-2.2,0-4.1-1.7-4.1-4C331,35.1,332.8,33.4,335,33.4 M335,40.9
		c1.8,0,3.3-1.5,3.3-3.5c0-2-1.5-3.5-3.3-3.5c-1.9,0-3.3,1.5-3.3,3.5C331.7,39.4,333.1,40.9,335,40.9 M333.5,35h1.8
		c1.1,0,1.6,0.4,1.6,1.4c0,0.9-0.5,1.2-1.2,1.3l1.4,2.1h-0.8l-1.3-2h-0.8v2h-0.7V35z M334.2,37.2h0.7c0.6,0,1.3,0,1.3-0.8
		c0-0.7-0.6-0.7-1.1-0.7h-1V37.2z"/>
	<g>
		<path class="st0" d="M383.4,42.5h3v2.7h0.1c1.2-1.8,3.2-3.2,5.6-3.2c2.3,0,4.2,1.2,5,3.4h0.1c1.2-2.2,3.5-3.4,5.8-3.4
			c3.4,0,5.8,2.2,5.8,6.1v13.4h-3V48.3c0-2.4-1.6-3.8-3.5-3.8c-2.5,0-4.7,2.1-4.7,5.1v11.9h-3V48.3c0-2.4-1.3-3.8-3.3-3.8
			c-2.3,0-4.9,2.1-4.9,5.1v11.9h-3V42.5z"/>
		<path class="st0" d="M424.8,59L424.8,59c-1.2,1.5-3.1,3-6.4,3c-3.6,0-6.5-1.7-6.5-5.3c0-4.5,3.5-5.4,8.3-6.2
			c2.7-0.4,4.6-0.7,4.6-2.7c0-2.1-1.6-3.4-4.3-3.4c-3.1,0-4.7,1.3-4.8,4.2h-2.9c0.1-3.7,2.6-6.5,7.6-6.5c4.1,0,7.1,1.5,7.1,6.1v9.1
			c0,1.6,0.4,2.4,2,2h0.1v2.2c-0.4,0.1-0.9,0.3-1.6,0.3C426.1,61.8,425.1,60.9,424.8,59z M424.8,54.6v-3.3c-1,0.6-2.7,1.1-4.4,1.4
			c-3,0.6-5.4,1.1-5.4,3.9c0,2.6,2,3.1,4,3.1C423,59.7,424.8,56.8,424.8,54.6z"/>
		<path class="st0" d="M430.9,52.1c0-6.4,3.7-10.1,8.4-10.1c2.7,0,4.8,1.3,6,3.1h0.1v-10h3v26.4h-3v-2.3h-0.1
			c-1.4,1.8-3.2,2.9-5.9,2.9C434.2,62.2,430.9,58.3,430.9,52.1z M445.5,52.2c0-4.4-2.1-7.5-6.1-7.5c-3.6,0-5.5,3.3-5.5,7.5
			c0,4.3,1.8,7.5,5.5,7.5C443.7,59.7,445.5,56.5,445.5,52.2z"/>
		<path class="st0" d="M451.6,52.1c0-5.5,3.6-10.1,9.1-10.1c5.7,0,8.8,4.4,8.8,10.8h-14.8c0.2,3.9,2.3,6.8,6.2,6.8
			c2.8,0,4.6-1.3,5.3-3.9h2.9c-0.9,4.1-3.9,6.4-8.2,6.4C455,62.1,451.6,57.6,451.6,52.1z M454.7,50.5h11.5c-0.2-3.8-2.1-6.1-5.6-6.1
			C457.1,44.4,455.2,47,454.7,50.5z"/>
		<path class="st0" d="M478.1,42.5h2.8v-6h3v6h3.7v2.4h-3.7v12.4c0,1.3,0.7,1.8,1.9,1.8c0.6,0,1.3-0.1,1.6-0.3h0.1v2.6
			c-0.7,0.1-1.5,0.3-2.4,0.3c-2.4,0-4.2-1-4.2-3.7V44.9h-2.8V42.5z"/>
		<path class="st0" d="M488.9,52.1c0-5.5,3.5-10.1,9.2-10.1c5.7,0,9.2,4.5,9.2,10.1s-3.5,10.1-9.2,10.1
			C492.4,62.1,488.9,57.6,488.9,52.1z M504.3,52.1c0-4.2-2.1-7.6-6.1-7.6c-4.1,0-6.2,3.4-6.2,7.6s2.1,7.5,6.2,7.5
			C502.2,59.6,504.3,56.3,504.3,52.1z"/>
		<path class="st0" d="M517.3,42.5h3v2.7h0.1c1.2-1.8,3.2-3.2,5.6-3.2c2.3,0,4.2,1.2,5,3.4h0.1c1.2-2.2,3.5-3.4,5.8-3.4
			c3.4,0,5.8,2.2,5.8,6.1v13.4h-3V48.3c0-2.4-1.6-3.8-3.5-3.8c-2.5,0-4.7,2.1-4.7,5.1v11.9h-3V48.3c0-2.4-1.3-3.8-3.3-3.8
			c-2.3,0-4.9,2.1-4.9,5.1v11.9h-3V42.5z"/>
		<path class="st0" d="M545.8,52.1c0-5.5,3.5-10.1,9.2-10.1c5.7,0,9.2,4.5,9.2,10.1s-3.5,10.1-9.2,10.1
			C549.4,62.1,545.8,57.6,545.8,52.1z M561.2,52.1c0-4.2-2.1-7.6-6.1-7.6c-4.1,0-6.2,3.4-6.2,7.6s2.1,7.5,6.2,7.5
			C559.2,59.6,561.2,56.3,561.2,52.1z"/>
		<path class="st0" d="M564.9,42.5h3.2l4,12.1c0.6,1.7,1.3,4,1.3,4h0.1c0,0,0.7-2.4,1.3-4l4-12.1h3.1l-6.9,19.1h-3.3L564.9,42.5z"/>
		<path class="st0" d="M582.3,52.1c0-5.5,3.6-10.1,9.1-10.1c5.7,0,8.8,4.4,8.8,10.8h-14.8c0.2,3.9,2.3,6.8,6.2,6.8
			c2.8,0,4.6-1.3,5.3-3.9h2.9c-0.9,4.1-3.9,6.4-8.2,6.4C585.7,62.1,582.3,57.6,582.3,52.1z M585.4,50.5h11.5
			c-0.2-3.8-2.1-6.1-5.6-6.1C587.8,44.4,585.9,47,585.4,50.5z"/>
	</g>
	<rect x="359.5" y="23.1" class="st0" width="3" height="49.9"/>
</g>
<g id="Layer_3">
	<g class="st1">
		<path class="st0" d="M94.2,48.4c-4.4-2.5-8.6-4-12.3-4.6c0.3,1.5,0.4,3.1,0.4,4.6c0,1.6-0.1,3.1-0.4,4.7
			C85.6,52.4,89.8,50.9,94.2,48.4z"/>
		<path class="st0" d="M77.5,33.2c2.1-3.1,4-7.1,5.4-12c-4.8,1.4-8.9,3.3-12,5.4C73.5,28.4,75.7,30.7,77.5,33.2z"/>
		<path class="st0" d="M51.1,22.3c1.5-0.3,3.1-0.4,4.6-0.4c1.6,0,3.1,0.1,4.7,0.4c-0.7-3.7-2.2-7.9-4.6-12.3
			C53.3,14.4,51.8,18.6,51.1,22.3z"/>
		<path class="st0" d="M34,33.2c1.8-2.6,4-4.8,6.6-6.6c-3.1-2.1-7.1-4-12-5.4C30,26.1,31.9,30.1,34,33.2z"/>
		<path class="st0" d="M17.4,48.4c4.4,2.5,8.6,4,12.3,4.6c-0.3-1.5-0.4-3.1-0.4-4.6c0-1.6,0.1-3.1,0.4-4.7
			C26,44.4,21.8,45.9,17.4,48.4z"/>
		<path class="st0" d="M34,63.6c-2.1,3.1-4,7.1-5.4,12c4.8-1.4,8.9-3.3,12-5.4C38.1,68.4,35.8,66.1,34,63.6z"/>
		<path class="st0" d="M51.1,74.5c0.7,3.7,2.2,7.9,4.6,12.3c2.5-4.4,4-8.6,4.6-12.3c-1.5,0.3-3.1,0.4-4.6,0.4
			C54.2,74.9,52.6,74.8,51.1,74.5z"/>
		<path class="st0" d="M71,70.2c3.1,2.1,7.1,4,12,5.4c-1.4-4.8-3.3-8.9-5.4-12C75.7,66.1,73.5,68.4,71,70.2z"/>
	</g>
	<g class="st2">
		<path class="st0" d="M81.9,43.8c-1.7-0.3-3.3-0.5-4.8-0.5c-1.7,0-3.4,0.2-5,0.6c0.4,1.5,0.6,3,0.6,4.6c0,1.6-0.2,3.1-0.6,4.6
			c1.6,0.4,3.2,0.6,5,0.6c1.4,0,3-0.2,4.8-0.5c0.3-1.5,0.4-3.1,0.4-4.7C82.3,46.8,82.2,45.3,81.9,43.8z"/>
		<path class="st0" d="M70.6,40c1.4-0.8,2.7-1.9,3.9-3.1c1-1,2-2.3,3-3.7c-1.8-2.6-4-4.8-6.6-6.6c-1.4,1-2.7,2-3.7,3
			c-1.2,1.2-2.3,2.5-3.1,3.9C66.8,35.1,69.1,37.4,70.6,40z"/>
		<path class="st0" d="M55.8,21.9c-1.6,0-3.1,0.1-4.6,0.4c-0.3,1.7-0.5,3.3-0.5,4.8c0,1.7,0.2,3.4,0.6,5c1.5-0.4,3-0.6,4.6-0.6
			c1.6,0,3.1,0.2,4.6,0.6c0.4-1.6,0.6-3.2,0.6-5c0-1.4-0.2-3-0.5-4.8C58.9,22,57.4,21.9,55.8,21.9z"/>
		<path class="st0" d="M40.6,26.7c-2.6,1.8-4.8,4-6.6,6.6c1,1.4,2,2.7,3,3.7c1.2,1.2,2.5,2.3,3.9,3.1c1.5-2.7,3.8-4.9,6.4-6.4
			c-0.8-1.4-1.9-2.7-3.1-3.9C43.3,28.7,42.1,27.6,40.6,26.7z"/>
		<path class="st0" d="M39.4,53c-0.4-1.5-0.6-3-0.6-4.6c0-1.6,0.2-3.1,0.6-4.6c-1.6-0.4-3.2-0.6-5-0.6c-1.4,0-3,0.2-4.8,0.5
			c-0.3,1.5-0.4,3.1-0.4,4.7c0,1.6,0.1,3.1,0.4,4.6c1.7,0.3,3.3,0.5,4.8,0.5C36.2,53.5,37.8,53.3,39.4,53z"/>
		<path class="st0" d="M41,56.8c-1.4,0.8-2.7,1.9-3.9,3.1c-1,1-2,2.3-3,3.7c1.8,2.6,4,4.8,6.6,6.6c1.4-1,2.7-2,3.7-3
			c1.2-1.2,2.3-2.5,3.1-3.9C44.7,61.7,42.5,59.4,41,56.8z"/>
		<path class="st0" d="M55.8,65.4c-1.6,0-3.1-0.2-4.6-0.6c-0.4,1.6-0.6,3.2-0.6,5c0,1.4,0.2,3,0.5,4.8c1.5,0.3,3.1,0.4,4.7,0.4
			c1.6,0,3.1-0.1,4.6-0.4c0.3-1.7,0.5-3.3,0.5-4.8c0-1.7-0.2-3.4-0.6-5C58.9,65.2,57.4,65.4,55.8,65.4z"/>
		<path class="st0" d="M70.6,56.8c-1.5,2.7-3.8,4.9-6.4,6.4c0.8,1.4,1.9,2.7,3.1,3.9c1,1,2.3,2,3.7,3c2.6-1.8,4.8-4,6.6-6.6
			c-1-1.4-2-2.7-3-3.7C73.3,58.6,72,57.6,70.6,56.8z"/>
	</g>
	<g>
		<path class="st0" d="M72.2,43.8c-3.4,0.8-6.4,2.4-8.7,4.6c2.3,2.1,5.3,3.7,8.7,4.6c0.4-1.5,0.6-3,0.6-4.6
			C72.8,46.8,72.6,45.3,72.2,43.8z"/>
		<path class="st0" d="M64.1,33.6c-1.9,3-2.8,6.3-2.9,9.4c3.1-0.1,6.4-1.1,9.4-2.9C69.1,37.4,66.8,35.1,64.1,33.6z"/>
		<path class="st0" d="M51.2,32c0.8,3.4,2.4,6.4,4.6,8.7c2.1-2.3,3.7-5.3,4.6-8.7c-1.5-0.4-3-0.6-4.6-0.6
			C54.2,31.4,52.7,31.6,51.2,32z"/>
		<path class="st0" d="M41,40c3,1.9,6.3,2.8,9.4,2.9c-0.1-3.1-1.1-6.4-2.9-9.4C44.7,35.1,42.5,37.4,41,40z"/>
		<path class="st0" d="M39.4,43.8c-0.4,1.5-0.6,3-0.6,4.6c0,1.6,0.2,3.1,0.6,4.6c3.4-0.8,6.4-2.4,8.7-4.6
			C45.8,46.3,42.8,44.7,39.4,43.8z"/>
		<path class="st0" d="M47.4,63.2c1.9-3,2.8-6.3,2.9-9.4C47.2,54,44,54.9,41,56.8C42.5,59.4,44.7,61.7,47.4,63.2z"/>
		<path class="st0" d="M51.2,64.8c1.5,0.4,3,0.6,4.6,0.6c1.6,0,3.1-0.2,4.6-0.6c-0.8-3.4-2.4-6.4-4.6-8.7
			C53.7,58.4,52,61.3,51.2,64.8z"/>
		<path class="st0" d="M64.1,63.2c2.7-1.5,4.9-3.8,6.4-6.4c-3-1.9-6.3-2.8-9.4-2.9C61.4,57,62.3,60.2,64.1,63.2z"/>
	</g>
</g>
</svg>
